<svg width="1024" height="512" viewBox="0 0 1024 512" fill="none" xmlns="http://www.w3.org/2000/svg">
<rect width="1024" height="512" fill="#EEEEEE"/>
<rect x="85" y="64" width="384" height="384" fill="white"/>
<line x1="276" y1="448" x2="276" y2="64" stroke="#EEEEEE" stroke-width="2"/>
<line x1="85" y1="255" x2="469" y2="255" stroke="#EEEEEE" stroke-width="2"/>
<line x1="85" y1="351" x2="469" y2="351" stroke="#EEEEEE" stroke-width="2"/>
<line x1="85" y1="159" x2="469" y2="159" stroke="#EEEEEE" stroke-width="2"/>
<line x1="372" y1="448" x2="372" y2="64" stroke="#EEEEEE" stroke-width="2"/>
<line x1="180" y1="448" x2="180" y2="64" stroke="#EEEEEE" stroke-width="2"/>
<mask id="mask0_6_31" style="mask-type:alpha" maskUnits="userSpaceOnUse" x="85" y="64" width="384" height="384">
<rect x="85" y="64" width="384" height="384" fill="white"/>
</mask>
<g mask="url(#mask0_6_31)">
<rect x="-150" y="171" width="512" height="512" rx="128" stroke="#444444" stroke-width="8"/>
<circle cx="234" cy="171" r="6" stroke="#2A90D9" stroke-width="4"/>
<circle cx="362" cy="299" r="6" stroke="#2A90D9" stroke-width="4"/>
<path d="M386 291L386 325M386 325L394 317M386 325L378 317" stroke="#2A90D9" stroke-width="4"/>
<path d="M242 147L208 147M208 147L216 155M208 147L216 139" stroke="#2A90D9" stroke-width="4"/>
</g>
<rect x="555" y="64" width="384" height="384" fill="white"/>
<line x1="746" y1="448" x2="746" y2="64" stroke="#EEEEEE" stroke-width="2"/>
<line x1="555" y1="255" x2="939" y2="255" stroke="#EEEEEE" stroke-width="2"/>
<line x1="555" y1="351" x2="939" y2="351" stroke="#EEEEEE" stroke-width="2"/>
<line x1="555" y1="159" x2="939" y2="159" stroke="#EEEEEE" stroke-width="2"/>
<line x1="842" y1="448" x2="842" y2="64" stroke="#EEEEEE" stroke-width="2"/>
<line x1="650" y1="448" x2="650" y2="64" stroke="#EEEEEE" stroke-width="2"/>
<mask id="mask1_6_31" style="mask-type:alpha" maskUnits="userSpaceOnUse" x="555" y="64" width="384" height="384">
<rect x="555" y="64" width="384" height="384" fill="white"/>
</mask>
<g mask="url(#mask1_6_31)">
<path fill-rule="evenodd" clip-rule="evenodd" d="M524.611 167H627.389C663.073 167 690.089 167 711.596 168.757C733.188 170.521 749.579 174.076 763.927 181.387C788.764 194.042 808.958 214.236 821.613 239.073C828.924 253.421 832.479 269.812 834.243 291.404C836 312.911 836 339.927 836 375.611V478.389C836 514.073 836 541.089 834.243 562.596C832.479 584.188 828.924 600.579 821.613 614.927C808.958 639.764 788.764 659.958 763.927 672.613C749.579 679.924 733.188 683.479 711.596 685.243C690.089 687 663.073 687 627.389 687H524.611C488.927 687 461.911 687 440.404 685.243C418.812 683.479 402.421 679.924 388.073 672.613C363.236 659.958 343.042 639.764 330.387 614.927C323.076 600.579 319.521 584.188 317.757 562.596C316 541.089 316 514.073 316 478.389V375.611C316 339.927 316 312.911 317.757 291.404C319.521 269.812 323.076 253.421 330.387 239.073C343.042 214.236 363.236 194.042 388.073 181.387C402.421 174.076 418.812 170.521 440.404 168.757C461.911 167 488.927 167 524.611 167ZM441.056 176.731C419.959 178.454 404.738 181.875 391.705 188.515C368.373 200.403 349.403 219.373 337.515 242.705C330.875 255.738 327.454 270.959 325.731 292.056C324.003 313.199 324 339.891 324 375.8V478.2C324 514.109 324.003 540.801 325.731 561.944C327.454 583.041 330.875 598.262 337.515 611.295C349.403 634.627 368.373 653.596 391.705 665.485C404.738 672.125 419.959 675.546 441.056 677.269C462.199 678.997 488.891 679 524.8 679H627.2C663.109 679 689.801 678.997 710.944 677.269C732.041 675.546 747.262 672.125 760.295 665.485C783.627 653.596 802.596 634.627 814.485 611.295C821.125 598.262 824.546 583.041 826.269 561.944C827.997 540.801 828 514.109 828 478.2V375.8C828 339.891 827.997 313.199 826.269 292.056C824.546 270.959 821.125 255.738 814.485 242.705C802.596 219.373 783.627 200.403 760.295 188.515C747.262 181.875 732.041 178.454 710.944 176.731C689.801 175.003 663.109 175 627.2 175H524.8C488.891 175 462.199 175.003 441.056 176.731Z" fill="#444444"/>
<circle cx="627.2" cy="171" r="6" stroke="#2A90D9" stroke-width="4"/>
<circle cx="832" cy="375.8" r="6" stroke="#2A90D9" stroke-width="4"/>
</g>
<path d="M489 262H533M533 262L517 246M533 262L517 278" stroke="#444444" stroke-width="6"/>
</svg>
